<svg width="153" height="36" viewBox="0 0 153 36" fill="none" xmlns="http://www.w3.org/2000/svg">
<g clip-path="url(#clip0_186_736)">
<path d="M152.93 6.10352e-05H18.9805V4.4442H152.93V6.10352e-05Z" fill="#C9CFE1"/>
<path d="M0 9.15527e-05V4.44423H5.92785V31.5559H0V36.0001H16.7607V31.5559H10.8328V4.44423H16.9492V9.15527e-05H0Z" fill="#C9CFE1"/>
<path d="M152.93 31.5559H18.9805V36.0001H152.93V31.5559Z" fill="#C9CFE1"/>
<path d="M19.3236 7.45355H13.9648V29.0249H18.8663V14.8407L29.3256 29.0249H34.2271V7.45355H29.3256V21.0827L19.3236 7.45355Z" fill="#C9CFE1"/>
<path d="M57.7601 11.8977V7.45355H37.8574V29.0249H42.7589V21.1141H55.9307V17.0959H42.7589V11.8977H57.7601Z" fill="#C9CFE1"/>
<path d="M80.0677 18.0909C80.731 17.0575 81.0626 15.8845 81.0626 14.5788C81.0626 12.2922 80.2876 10.5327 78.7411 9.30033C77.1945 8.06798 74.7857 7.45355 71.518 7.45355H61.0273V29.0249H65.9288V21.4423H72.1045L76.9746 29.0249H82.6301L77.1736 20.5276C78.4373 19.9411 79.4009 19.1277 80.0677 18.0944V18.0909ZM74.9498 17.0785C74.1433 17.7208 73.0646 18.042 71.7135 18.042H65.9288V11.8977H71.4203C73.0332 11.8977 74.2236 12.0897 74.9986 12.4702C75.7737 12.8508 76.1577 13.6188 76.1577 14.7743C76.1577 15.6681 75.7527 16.4361 74.9498 17.0785Z" fill="#C9CFE1"/>
<path d="M83.0215 29.0249H88.1534L89.7209 24.4167H99.6565L101.224 29.0249H106.356L98.9373 7.45355H90.44L83.0215 29.0249ZM93.8752 12.3899H95.5091L98.2531 20.3985H91.1278L93.8718 12.3899H93.8752Z" fill="#C9CFE1"/>
<path d="M123.81 29.0249H128.712V7.45355H121.978L118.417 16.67H118.026L114.43 7.45355H107.73V29.0249H112.632L112.468 19.8085L111.784 13.4023L112.108 13.336L115.935 23.4671H120.476L124.334 13.336L124.69 13.4023L123.971 19.8085L123.81 29.0249Z" fill="#C9CFE1"/>
<path d="M131.979 29.0249H151.881V24.5773H136.88V19.9376H148.743V15.8845H136.88V11.8977H151.881V7.45355H131.979V29.0249Z" fill="#C9CFE1"/>
</g>
<defs>
<clipPath id="clip0_186_736">
<rect width="152.93" height="36" fill="white"/>
</clipPath>
</defs>
</svg>
