<svg width="153" height="36" viewBox="0 0 153 36" fill="none" xmlns="http://www.w3.org/2000/svg">
<g clip-path="url(#clip0_156_655)">
<path d="M152.93 3.05176e-05H18.9812V4.44417H152.93V3.05176e-05Z" fill="#C9CFE1"/>
<path d="M0 9.15527e-05V4.44423H5.92785V31.5559H0V36.0001H16.7607V31.5559H10.8328V4.44423H16.9492V9.15527e-05H0Z" fill="#C9CFE1"/>
<path d="M152.93 31.5559H18.9812V36.0001H152.93V31.5559Z" fill="#C9CFE1"/>
<path d="M19.3266 7.45352H13.9678V29.0249H18.8692V14.8406L29.3285 29.0249H34.23V7.45352H29.3285V21.0827L19.3266 7.45352Z" fill="#C9CFE1"/>
<path d="M57.7597 11.8977V7.45352H37.8571V29.0249H42.7585V21.1141H55.9304V17.0959H42.7585V11.8977H57.7597Z" fill="#C9CFE1"/>
<path d="M80.0679 18.0908C80.7312 17.0575 81.0629 15.8845 81.0629 14.5788C81.0629 12.2922 80.2879 10.5327 78.7413 9.3003C77.1948 8.06795 74.7859 7.45352 71.5183 7.45352H61.0276V29.0249H65.9291V21.4423H72.1048L76.9748 29.0249H82.6304L77.1738 20.5276C78.4376 19.9411 79.4011 19.1277 80.0679 18.0943V18.0908ZM74.95 17.0784C74.1436 17.7208 73.0648 18.042 71.7138 18.042H65.9291V11.8977H71.4205C73.0334 11.8977 74.2239 12.0897 74.9989 12.4702C75.7739 12.8507 76.1579 13.6188 76.1579 14.7743C76.1579 15.668 75.753 16.4361 74.95 17.0784Z" fill="#C9CFE1"/>
<path d="M83.0214 29.0249H88.1532L89.7207 24.4167H99.6563L101.224 29.0249H106.356L98.9372 7.45352H90.4399L83.0214 29.0249ZM93.8751 12.3899H95.5089L98.2529 20.3984H91.1276L93.8716 12.3899H93.8751Z" fill="#C9CFE1"/>
<path d="M123.811 29.0249H128.713V7.45352H121.978L118.417 16.67H118.026L114.431 7.45352H107.731V29.0249H112.633L112.469 19.8084L111.784 13.4023L112.109 13.336L115.935 23.4671H120.477L124.335 13.336L124.691 13.4023L123.972 19.8084L123.811 29.0249Z" fill="#C9CFE1"/>
<path d="M131.98 29.0249H151.883V24.5773H136.882V19.9376H148.744V15.8845H136.882V11.8977H151.883V7.45352H131.98V29.0249Z" fill="#C9CFE1"/>
</g>
<defs>
<clipPath id="clip0_156_655">
<rect width="152.93" height="36" fill="white"/>
</clipPath>
</defs>
</svg>
