<?xml version="1.0" encoding="UTF-8"?>
<svg xmlns="http://www.w3.org/2000/svg" viewBox="0 0 1017 639" fill="none" stroke="#EFB921" stroke-width="1.25" stroke-linejoin="round" stroke-linecap="round">
  <path d="M304.99,300.34 L304.91,415.85 L273.73,415.85 L255.70,408.26 L216.18,392.19 L217.61,387.61 L220.65,386.83 L221.49,385.05 L220.65,381.25 L218.54,381.14 L217.53,373.55 L220.65,370.65 L221.07,367.64 L220.48,362.84 L222.33,359.27 L224.77,357.93 L226.63,355.25 L223.59,352.35 L221.49,346.99 L218.96,343.64 L218.96,341.08 L219.89,338.28 L219.55,334.49 L218.29,330.58 L217.36,318.64 L223.00,317.86 L224.86,320.32 L226.37,320.20 L227.98,316.74 L227.98,300.34 L282.58,300.23 L304.99,300.34 Z"/>
  <path d="M529.12,310.50 L595.60,310.61 L596.95,314.51 L594.59,316.97 L592.15,320.76 L602.09,320.76 L601.59,324.56 L599.31,325.67 L598.81,328.80 L595.94,332.15 L596.19,337.06 L594.68,340.63 L593.16,341.19 L594.09,342.97 L591.64,344.53 L590.55,347.99 L588.95,348.89 L589.20,352.91 L586.42,354.02 L586.50,355.36 L583.30,358.71 L584.23,360.94 L581.45,364.18 L579.01,370.43 L581.70,373.11 L580.35,374.78 L581.20,379.02 L580.02,381.81 L542.44,381.48 L535.78,381.48 L535.78,370.65 L533.59,369.76 L530.56,370.76 L528.95,368.86 L529.80,333.04 L526.93,310.50 L529.12,310.50 Z"/>
  <path d="M86.67,198.33 L99.82,198.22 L120.46,198.55 L136.38,198.55 L136.47,233.82 L136.38,259.60 L156.19,277.91 L174.89,295.87 L189.64,310.50 L200.25,321.32 L218.96,341.08 L218.96,343.64 L221.49,346.99 L223.59,352.35 L226.63,355.25 L224.77,357.93 L222.33,359.27 L220.48,362.84 L221.07,367.64 L220.65,370.65 L217.53,373.55 L218.54,381.14 L220.65,381.25 L221.49,385.05 L220.65,386.83 L217.61,387.61 L197.22,389.51 L180.62,391.30 L178.77,388.62 L178.68,384.38 L177.50,379.36 L175.31,375.78 L170.51,370.87 L164.36,366.30 L163.18,367.53 L160.82,366.74 L161.16,364.74 L158.46,360.61 L154.84,361.50 L148.43,358.49 L147.51,356.03 L143.21,353.02 L138.32,353.13 L134.28,351.79 L129.14,352.35 L126.44,349.67 L127.03,343.98 L126.10,343.08 L126.69,339.07 L122.65,336.05 L122.48,331.92 L120.96,331.70 L118.44,328.13 L116.67,327.35 L115.91,325.12 L110.01,316.74 L107.23,314.29 L106.64,307.70 L107.82,308.26 L108.92,304.36 L106.72,300.79 L104.03,301.23 L100.49,298.00 L99.23,295.43 L99.48,292.97 L97.71,289.74 L97.71,284.38 L100.57,284.38 L99.39,276.90 L98.13,277.68 L97.88,281.37 L94.84,282.15 L91.22,279.36 L90.63,274.56 L88.27,270.76 L85.15,268.42 L83.47,265.74 L78.92,260.50 L79.68,258.93 L77.57,252.13 L78.50,248.33 L77.15,242.64 L73.19,237.06 L69.31,233.93 L68.55,230.25 L72.43,221.32 L73.19,218.31 L72.43,215.97 L73.86,209.83 L72.60,204.25 L70.91,202.91 L71.59,198.44 L86.67,198.33 Z"/>
  <path d="M322.26,218.76 L355.97,218.87 L381.75,218.76 L412.51,218.76 L412.51,239.18 L412.68,300.45 L397.93,300.34 L377.37,300.45 L338.44,300.45 L329.93,300.34 L304.99,300.34 L304.99,276.57 L304.74,274.33 L304.82,257.04 L304.91,218.87 L322.26,218.76 Z"/>
  <path d="M858.67,197.66 L877.96,198.00 L877.96,198.33 L877.96,210.38 L877.04,212.28 L875.69,211.95 L868.95,213.51 L860.94,213.06 L857.49,215.85 L853.78,216.75 L849.40,219.09 L848.30,216.75 L852.09,214.51 L851.00,212.84 L852.01,197.44 L858.67,197.66 Z"/>
  <path d="M822.35,243.20 L820.92,245.65 L819.32,246.99 L819.65,250.23 L821.93,253.24 L822.52,258.26 L825.80,263.51 L827.32,263.73 L828.00,270.76 L818.05,270.54 L816.62,244.87 L819.23,242.64 L822.35,243.20 Z"/>
  <path d="M797.41,259.71 L799.35,261.72 L797.32,263.84 L796.15,260.94 L797.41,259.71 Z"/>
  <path d="M667.23,422.66 L674.81,422.55 L676.92,428.46 L697.98,429.80 L717.70,431.36 L718.46,435.72 L720.31,435.60 L720.98,431.48 L720.39,427.68 L721.83,426.12 L725.37,427.79 L729.58,428.57 L730.51,437.39 L732.44,447.32 L736.91,460.38 L743.74,474.33 L742.72,475.34 L743.06,481.81 L745.93,489.06 L750.39,503.68 L751.32,508.26 L751.23,512.95 L749.55,529.80 L748.12,530.13 L746.60,535.38 L747.11,537.05 L744.16,540.85 L742.98,539.96 L740.11,541.52 L735.22,542.41 L733.79,540.29 L734.47,537.17 L731.01,528.13 L728.32,526.45 L725.96,527.68 L724.10,522.66 L723.60,518.53 L720.39,513.95 L719.64,510.94 L720.14,506.59 L718.37,505.80 L718.79,508.37 L717.19,509.04 L712.31,497.99 L710.37,495.20 L715.00,487.06 L711.97,487.50 L709.95,490.07 L707.92,486.05 L710.62,474.89 L711.13,465.63 L709.27,463.39 L708.68,460.38 L705.73,459.71 L702.28,454.80 L699.50,452.79 L699.33,449.78 L697.39,448.66 L695.79,445.31 L689.89,440.85 L684.75,441.85 L685.01,444.98 L683.32,444.42 L676.92,448.22 L670.09,449.11 L670.26,446.88 L668.66,444.20 L660.65,438.17 L654.92,435.60 L649.78,434.94 L645.49,435.38 L636.13,437.28 L638.41,434.27 L637.23,432.59 L637.82,429.24 L634.36,425.34 L634.87,422.66 L667.23,422.66 Z"/>
  <path d="M703.96,341.08 L700.68,345.43 L700.43,347.55 L705.56,351.90 L707.17,351.57 L709.53,356.03 L710.03,358.37 L712.47,362.61 L716.01,365.18 L718.04,368.98 L722.16,372.44 L722.00,374.78 L724.69,378.57 L728.82,381.70 L729.83,385.05 L730.00,389.40 L732.11,390.85 L734.55,396.32 L734.63,399.78 L738.17,401.57 L734.38,408.48 L733.71,412.06 L732.11,415.18 L731.94,418.42 L730.25,419.87 L729.58,428.57 L725.37,427.79 L721.83,426.12 L720.39,427.68 L720.98,431.48 L720.31,435.60 L718.46,435.72 L717.70,431.36 L697.98,429.80 L676.92,428.46 L674.81,422.55 L673.12,416.97 L674.22,411.61 L672.70,405.47 L674.05,402.01 L673.97,399.44 L676.58,396.88 L674.81,395.65 L675.48,393.64 L673.80,390.40 L672.03,384.71 L668.24,358.93 L665.54,341.41 L685.34,341.30 L696.13,341.41 L703.96,341.08 Z"/>
  <path d="M197.22,55.81 L197.22,76.68 L202.19,82.37 L202.28,87.95 L205.23,90.41 L208.34,91.30 L208.68,92.75 L214.41,98.22 L215.08,100.45 L219.13,102.57 L219.30,103.91 L223.76,103.80 L221.57,111.39 L221.15,116.19 L222.75,119.31 L219.97,121.55 L221.07,123.67 L220.31,125.90 L223.59,128.02 L227.39,125.23 L228.90,123.00 L231.68,125.01 L231.26,126.68 L232.78,130.59 L235.31,134.72 L237.16,136.17 L237.08,140.07 L238.85,141.75 L242.05,141.97 L244.07,148.56 L245.84,149.67 L247.44,147.77 L252.24,147.89 L255.78,146.10 L257.89,147.10 L261.51,146.21 L262.27,147.33 L265.39,146.55 L268.93,142.31 L271.37,145.88 L274.15,148.00 L274.15,198.44 L256.96,198.55 L228.06,198.55 L182.14,198.44 L182.14,161.17 L184.16,154.47 L182.90,152.80 L179.95,152.46 L178.85,149.67 L181.97,142.42 L183.57,141.75 L185.17,138.73 L184.92,136.84 L186.69,134.38 L187.61,130.81 L190.82,124.78 L189.55,121.99 L185.93,120.54 L183.82,117.08 L183.74,113.51 L181.72,109.94 L181.97,108.27 L181.89,81.03 L182.05,55.81 L197.22,55.81 Z"/>
  <path d="M588.11,188.06 L616.59,188.40 L631.75,188.40 L631.25,192.30 L633.61,196.88 L636.05,204.36 L635.97,252.46 L634.28,256.14 L636.22,260.50 L636.47,264.07 L634.53,266.97 L634.03,269.65 L631.25,274.00 L629.48,274.33 L629.90,276.90 L628.72,277.91 L627.79,282.71 L628.30,284.04 L626.28,286.95 L627.71,290.52 L621.39,292.41 L620.80,294.54 L622.23,297.21 L620.29,298.89 L614.65,295.76 L612.88,295.99 L610.52,299.56 L611.28,300.67 L608.83,300.45 L605.38,294.65 L606.64,293.31 L605.38,289.40 L605.38,286.28 L600.41,281.92 L598.72,282.37 L597.04,279.69 L592.49,275.56 L592.57,272.33 L595.18,267.08 L594.76,265.18 L596.28,262.73 L594.09,261.28 L590.72,260.38 L588.95,262.28 L587.77,261.05 L586.76,254.36 L581.62,250.00 L576.90,244.76 L574.96,238.51 L574.79,234.38 L576.14,231.48 L576.39,227.80 L580.69,225.56 L581.11,222.44 L583.13,220.43 L583.39,216.86 L580.86,213.96 L581.87,210.38 L587.85,209.38 L592.66,206.81 L593.16,203.69 L595.18,202.35 L595.77,198.44 L595.35,195.88 L591.90,193.87 L591.48,191.75 L588.11,188.06 Z"/>
  <path d="M659.64,203.35 L677.84,203.35 L677.84,204.69 L677.93,229.02 L677.67,257.48 L676.50,258.38 L677.76,263.96 L675.06,264.07 L672.20,265.96 L668.24,265.07 L668.41,269.09 L665.79,270.76 L664.78,273.33 L662.09,274.33 L660.65,279.47 L658.88,280.81 L655.43,278.91 L654.84,276.57 L651.47,279.13 L651.72,281.37 L648.27,282.15 L647.26,280.14 L643.38,282.15 L642.12,284.27 L638.24,281.25 L636.22,281.92 L634.87,280.47 L633.61,281.92 L629.73,282.15 L628.30,284.04 L627.79,282.71 L628.72,277.91 L629.90,276.90 L629.48,274.33 L631.25,274.00 L634.03,269.65 L634.53,266.97 L636.47,264.07 L636.22,260.50 L634.28,256.14 L635.97,252.46 L636.05,204.36 L637.57,205.70 L642.29,205.70 L646.84,203.35 L659.64,203.35 Z"/>
  <path d="M576.90,167.86 L579.26,167.86 L579.43,170.88 L581.70,172.89 L579.85,175.34 L580.35,179.92 L581.53,183.15 L587.01,185.50 L588.11,188.06 L591.48,191.75 L591.90,193.87 L595.35,195.88 L595.77,198.44 L595.18,202.35 L593.16,203.69 L592.66,206.81 L587.85,209.38 L581.87,210.38 L580.86,213.96 L583.39,216.86 L583.13,220.43 L581.11,222.44 L580.69,225.56 L576.39,227.80 L576.14,231.48 L574.46,230.81 L571.34,226.68 L569.74,226.79 L547.83,227.35 L526.68,227.57 L509.24,227.24 L507.47,224.56 L508.31,219.31 L506.79,214.74 L506.88,209.60 L504.18,207.82 L503.76,205.03 L504.69,202.57 L503.68,199.00 L501.57,197.66 L498.79,188.51 L495.92,184.05 L497.27,181.03 L497.78,177.01 L498.96,175.56 L497.02,173.56 L497.53,169.98 L496.68,168.31 L498.71,167.86 L576.90,167.86 Z"/>
  <path d="M414.78,239.18 L516.32,239.18 L517.83,241.08 L522.80,242.64 L519.35,248.55 L521.29,250.56 L523.73,255.36 L527.02,256.37 L526.93,300.34 L442.76,300.34 L412.68,300.45 L412.51,239.18 L414.78,239.18 Z"/>
  <path d="M691.75,264.29 L695.20,267.08 L697.64,265.63 L703.46,267.19 L705.14,265.18 L707.33,264.51 L708.01,267.97 L709.78,268.53 L711.88,271.32 L711.46,277.46 L713.32,281.37 L715.76,284.38 L716.52,286.72 L719.47,289.07 L721.49,289.40 L715.59,294.87 L709.95,297.88 L709.95,299.45 L707.67,300.79 L707.50,302.57 L704.55,303.35 L703.54,305.58 L695.29,308.49 L695.03,308.82 L681.89,308.60 L670.43,307.93 L667.39,308.15 L650.37,307.37 L630.99,307.82 L627.62,306.92 L627.88,310.61 L608.75,310.38 L606.90,310.61 L607.74,308.04 L610.01,308.93 L611.28,300.67 L610.52,299.56 L612.88,295.99 L614.65,295.76 L620.29,298.89 L622.23,297.21 L620.80,294.54 L621.39,292.41 L627.71,290.52 L626.28,286.95 L628.30,284.04 L629.73,282.15 L633.61,281.92 L634.87,280.47 L636.22,281.92 L638.24,281.25 L642.12,284.27 L643.38,282.15 L647.26,280.14 L648.27,282.15 L651.72,281.37 L651.47,279.13 L654.84,276.57 L655.43,278.91 L658.88,280.81 L660.65,279.47 L662.09,274.33 L664.78,273.33 L665.79,270.76 L668.41,269.09 L668.24,265.07 L672.20,265.96 L675.06,264.07 L677.76,263.96 L676.50,258.38 L677.67,257.48 L683.57,257.48 L686.69,261.72 L686.94,263.51 L691.75,264.29 Z"/>
  <path d="M542.44,381.48 L580.02,381.81 L581.45,384.15 L580.35,385.05 L580.19,389.18 L582.46,391.74 L582.80,397.77 L580.94,402.46 L577.32,405.36 L576.39,409.94 L574.88,409.49 L574.62,416.97 L572.77,417.19 L573.87,421.21 L572.77,422.66 L601.84,422.66 L600.32,429.36 L602.85,433.82 L603.44,437.17 L605.29,439.29 L600.74,442.08 L600.41,444.09 L604.12,445.43 L605.72,442.19 L608.92,445.43 L608.67,447.99 L606.81,449.11 L603.36,448.10 L603.78,450.00 L602.60,452.90 L605.55,455.47 L610.27,456.25 L611.95,459.27 L613.30,459.71 L610.86,463.17 L608.16,462.50 L605.88,458.93 L600.24,457.03 L600.24,453.57 L597.46,454.69 L597.63,457.59 L596.36,460.27 L594.34,460.72 L592.82,457.70 L589.29,457.59 L588.02,460.72 L585.66,461.61 L583.13,459.71 L581.11,459.49 L579.17,454.47 L575.72,452.23 L574.37,452.57 L573.02,448.33 L568.98,448.89 L568.89,446.32 L564.93,448.77 L565.44,450.67 L562.41,452.46 L557.69,451.56 L552.21,448.77 L548.33,447.55 L539.99,448.55 L538.90,449.33 L537.55,447.32 L541.17,440.07 L539.99,436.16 L541.09,434.04 L540.58,431.25 L542.10,429.13 L543.70,423.89 L543.45,419.53 L539.23,411.27 L539.15,406.81 L535.78,402.35 L535.78,381.48 L542.44,381.48 Z"/>
  <path d="M894.81,176.90 L892.96,175.45 L893.21,173.44 L890.77,171.10 L889.76,144.31 L889.00,131.14 L895.66,128.35 L894.56,126.90 L897.09,123.78 L899.70,122.33 L899.20,121.10 L901.64,119.20 L900.88,115.63 L902.40,110.27 L904.76,108.49 L905.68,102.80 L917.56,87.17 L920.35,87.84 L920.51,91.64 L922.54,92.98 L927.51,90.74 L930.63,90.74 L932.82,89.29 L937.11,92.53 L939.64,95.21 L939.81,118.09 L939.47,123.56 L944.78,125.01 L944.02,127.35 L945.37,129.58 L944.28,131.59 L946.47,134.72 L949.33,134.05 L952.11,141.30 L948.91,144.54 L947.06,143.31 L945.54,145.54 L943.35,144.98 L943.10,146.88 L940.23,146.66 L935.68,151.01 L934.59,148.00 L932.98,147.77 L933.74,151.01 L930.20,152.57 L929.36,150.01 L927.68,151.35 L923.72,151.35 L923.63,148.33 L921.27,149.00 L921.69,151.12 L919.50,155.59 L919.92,156.81 L917.06,159.27 L914.19,158.38 L912.51,160.94 L910.15,161.28 L908.21,163.40 L905.85,162.95 L905.18,160.72 L901.72,164.29 L902.65,166.52 L900.12,167.31 L899.95,169.20 L897.09,171.55 L894.81,176.90 Z"/>
  <path d="M813.42,280.92 L813.08,280.92 L812.66,280.92 L813.42,280.92 Z"/>
  <path d="M759.83,244.87 L816.62,244.87 L818.05,270.54 L828.00,270.76 L824.96,279.36 L822.60,279.69 L818.39,280.92 L815.10,281.81 L815.19,278.46 L813.92,277.13 L815.69,275.67 L813.33,272.33 L812.58,273.78 L809.37,273.44 L808.28,269.76 L809.29,269.76 L809.37,264.96 L810.39,263.06 L809.04,256.59 L810.72,252.80 L813.33,252.13 L813.76,248.22 L811.82,248.67 L811.73,250.67 L807.69,253.24 L806.51,255.59 L806.26,261.50 L804.74,264.29 L805.41,268.98 L807.44,272.21 L807.18,274.67 L808.45,277.13 L807.77,278.80 L804.23,275.56 L799.18,274.00 L797.66,270.88 L794.80,272.66 L793.70,270.21 L795.98,267.08 L797.32,263.84 L799.35,261.72 L797.41,259.71 L796.15,260.94 L794.12,259.04 L790.92,258.04 L790.92,255.03 L789.24,253.35 L786.88,253.02 L785.11,247.33 L782.49,247.33 L779.88,245.43 L778.45,246.99 L775.92,246.88 L775.33,249.11 L770.78,247.66 L767.75,250.67 L765.73,250.00 L762.69,253.46 L759.66,255.36 L759.83,244.87 Z"/>
  <path d="M891.53,180.36 L893.04,180.70 L893.63,184.27 L892.96,187.17 L890.52,189.85 L890.43,192.97 L893.80,193.42 L895.83,196.66 L895.49,199.22 L897.17,199.89 L897.34,202.24 L901.64,204.25 L906.61,202.35 L905.52,205.14 L898.18,207.59 L895.49,207.71 L893.89,205.81 L891.36,206.37 L891.28,207.82 L888.41,208.71 L887.23,205.03 L886.81,204.36 L885.21,202.91 L884.37,198.11 L882.09,198.11 L877.96,198.33 L877.96,198.00 L858.67,197.66 L852.01,197.44 L851.67,196.66 L855.38,183.26 L867.85,183.60 L885.71,184.27 L887.40,182.37 L891.53,180.36 Z"/>
  <path d="M698.66,203.91 L677.84,204.69 L677.84,203.35 L659.64,203.35 L646.84,203.35 L649.95,200.68 L652.06,196.10 L654.00,193.31 L655.43,189.40 L656.27,183.82 L655.94,177.80 L651.39,165.97 L652.82,161.50 L651.81,156.14 L655.35,150.68 L656.10,146.10 L655.60,143.64 L658.13,142.64 L658.46,139.29 L662.42,138.40 L665.46,134.72 L665.20,142.08 L666.81,142.42 L668.83,138.73 L668.91,132.48 L670.18,130.92 L674.39,129.92 L673.04,125.56 L675.82,121.88 L679.28,121.66 L683.15,124.00 L686.94,124.34 L688.80,127.24 L691.66,127.46 L696.46,130.14 L698.15,130.03 L700.76,134.38 L698.66,136.73 L700.68,139.74 L701.44,143.20 L700.51,150.79 L697.39,152.68 L696.63,156.59 L692.93,157.93 L690.90,162.62 L691.66,164.40 L695.37,166.08 L698.23,163.51 L701.60,158.27 L706.91,156.26 L709.53,157.82 L711.13,160.72 L712.73,169.20 L712.98,173.44 L714.67,178.58 L713.06,185.94 L710.54,187.06 L710.45,184.38 L708.77,185.16 L706.83,191.30 L703.71,193.64 L702.78,198.33 L698.91,202.24 L698.66,203.91 Z"/>
  <path d="M667.06,122.44 L667.31,124.90 L665.29,125.34 L666.13,121.88 L667.06,122.44 Z"/>
  <path d="M635.04,135.39 L632.68,133.27 L634.11,130.36 L630.49,129.92 L631.92,127.13 L632.09,123.56 L628.89,121.10 L627.12,118.53 L620.55,116.52 L618.52,117.19 L611.95,114.18 L596.11,110.05 L594.43,106.59 L591.56,105.36 L597.54,103.24 L600.24,100.79 L606.98,99.78 L611.36,96.77 L613.38,96.66 L615.07,94.54 L619.87,91.52 L622.32,88.96 L625.94,87.28 L629.39,88.73 L623.33,94.98 L621.89,97.11 L621.98,100.90 L624.93,98.00 L630.24,98.44 L634.36,100.45 L638.07,106.03 L640.09,107.04 L643.97,106.15 L644.90,107.37 L648.77,108.04 L657.03,103.36 L661.33,102.91 L667.06,103.13 L670.93,101.57 L673.88,101.46 L674.47,107.15 L677.51,107.93 L680.54,107.04 L681.80,108.38 L683.83,106.70 L688.29,106.15 L688.38,113.29 L690.40,116.30 L693.43,117.08 L693.77,115.07 L696.72,115.07 L698.32,117.19 L696.97,118.76 L688.54,117.42 L684.50,118.31 L680.12,115.85 L678.85,118.09 L679.44,119.98 L677.51,119.54 L674.64,116.75 L669.67,115.07 L667.14,114.96 L664.70,117.64 L660.65,118.31 L656.27,117.75 L654.50,118.87 L654.08,121.10 L649.28,123.00 L649.53,120.32 L647.43,119.76 L646.58,122.55 L643.04,122.66 L641.44,123.89 L639.08,128.69 L634.70,134.83 L635.04,135.39 Z"/>
  <path d="M616.33,76.68 L612.46,79.25 L610.43,79.58 L610.60,77.46 L620.29,72.66 L618.44,76.01 L616.33,76.68 Z"/>
  <path d="M566.96,102.57 L565.78,101.68 L562.66,103.36 L562.66,115.41 L561.73,116.64 L557.35,118.31 L553.81,122.66 L553.56,125.56 L555.33,125.79 L557.27,128.35 L555.50,131.48 L555.83,134.94 L554.74,142.42 L558.78,146.10 L561.98,146.43 L563.59,148.67 L568.30,150.90 L569.06,153.58 L573.44,157.04 L575.89,157.82 L578.84,162.28 L578.42,165.52 L579.26,167.86 L576.90,167.86 L498.71,167.86 L498.71,131.26 L495.17,128.91 L492.47,125.01 L496.68,120.65 L497.02,118.31 L496.43,110.16 L494.58,108.04 L493.31,103.58 L493.57,98.11 L492.98,97.22 L492.47,84.16 L489.44,77.24 L488.26,73.33 L487.75,65.07 L488.76,62.28 L486.74,55.81 L518.67,55.81 L518.67,48.00 L521.71,48.22 L523.73,49.78 L525.75,60.39 L527.35,61.61 L532.41,61.95 L533.00,62.95 L538.90,63.40 L539.57,65.63 L544.63,65.07 L544.63,64.18 L548.59,63.07 L552.04,63.51 L556.00,65.19 L557.10,67.31 L559.37,67.08 L561.48,71.66 L562.49,69.76 L566.37,68.87 L567.04,70.77 L571.59,72.11 L571.59,73.89 L573.87,75.34 L578.50,74.56 L581.28,72.55 L585.07,71.32 L586.42,74.34 L589.03,73.67 L592.15,74.34 L595.77,73.89 L599.90,76.46 L603.86,76.01 L603.53,77.13 L598.39,79.69 L591.22,81.70 L586.59,83.82 L579.93,89.07 L577.07,92.31 L572.69,95.99 L565.78,100.90 L566.96,102.57 Z"/>
  <path d="M621.47,341.19 L625.60,341.19 L627.20,343.31 L625.01,365.63 L621.47,404.36 L622.65,435.49 L620.97,436.39 L617.26,435.94 L615.74,434.60 L612.04,435.49 L606.90,437.84 L605.29,439.29 L603.44,437.17 L602.85,433.82 L600.32,429.36 L601.84,422.66 L572.77,422.66 L573.87,421.21 L572.77,417.19 L574.62,416.97 L574.88,409.49 L576.39,409.94 L577.32,405.36 L580.94,402.46 L582.80,397.77 L582.46,391.74 L580.19,389.18 L580.35,385.05 L581.45,384.15 L580.02,381.81 L581.20,379.02 L580.35,374.78 L581.70,373.11 L579.01,370.43 L581.45,364.18 L584.23,360.94 L583.30,358.71 L586.50,355.36 L586.42,354.02 L589.20,352.91 L588.95,348.89 L590.55,347.99 L591.64,344.53 L594.09,342.97 L593.16,341.19 L621.47,341.19 Z"/>
  <path d="M569.74,226.79 L571.34,226.68 L574.46,230.81 L576.14,231.48 L574.79,234.38 L574.96,238.51 L576.90,244.76 L581.62,250.00 L586.76,254.36 L587.77,261.05 L588.95,262.28 L590.72,260.38 L594.09,261.28 L596.28,262.73 L594.76,265.18 L595.18,267.08 L592.57,272.33 L592.49,275.56 L597.04,279.69 L598.72,282.37 L600.41,281.92 L605.38,286.28 L605.38,289.40 L606.64,293.31 L605.38,294.65 L608.83,300.45 L611.28,300.67 L610.01,308.93 L607.74,308.04 L606.90,310.61 L605.88,310.61 L605.04,310.61 L605.13,315.63 L602.09,320.76 L592.15,320.76 L594.59,316.97 L596.95,314.51 L595.60,310.61 L529.12,310.50 L526.93,310.50 L526.93,300.34 L527.02,256.37 L523.73,255.36 L521.29,250.56 L519.35,248.55 L522.80,242.64 L517.83,241.08 L516.32,239.18 L512.52,233.82 L509.24,227.24 L526.68,227.57 L547.83,227.35 L569.74,226.79 Z"/>
  <path d="M381.84,55.81 L381.92,79.03 L381.84,118.09 L381.92,137.39 L381.67,137.39 L353.10,137.28 L304.40,137.28 L274.07,137.28 L274.15,148.00 L271.37,145.88 L268.93,142.31 L265.39,146.55 L262.27,147.33 L261.51,146.21 L257.89,147.10 L255.78,146.10 L252.24,147.89 L247.44,147.77 L245.84,149.67 L244.07,148.56 L242.05,141.97 L238.85,141.75 L237.08,140.07 L237.16,136.17 L235.31,134.72 L232.78,130.59 L231.26,126.68 L231.68,125.01 L228.90,123.00 L227.39,125.23 L223.59,128.02 L220.31,125.90 L221.07,123.67 L219.97,121.55 L222.75,119.31 L221.15,116.19 L221.57,111.39 L223.76,103.80 L219.30,103.91 L219.13,102.57 L215.08,100.45 L214.41,98.22 L208.68,92.75 L208.34,91.30 L205.23,90.41 L202.28,87.95 L202.19,82.37 L197.22,76.68 L197.22,55.81 L267.16,55.92 L298.67,55.81 L381.84,55.81 Z"/>
  <path d="M392.96,178.02 L419.08,178.13 L467.19,178.13 L467.70,179.14 L475.62,182.82 L477.47,180.81 L479.66,181.26 L486.91,181.26 L495.00,185.05 L496.01,187.95 L498.79,188.51 L501.57,197.66 L503.68,199.00 L504.69,202.57 L503.76,205.03 L504.18,207.82 L506.88,209.60 L506.79,214.74 L508.31,219.31 L507.47,224.56 L509.24,227.24 L512.52,233.82 L516.32,239.18 L414.78,239.18 L412.51,239.18 L412.51,218.76 L381.75,218.76 L381.75,178.02 L392.96,178.02 Z"/>
  <path d="M182.14,198.44 L228.06,198.55 L227.98,300.34 L227.98,316.74 L226.37,320.20 L224.86,320.32 L223.00,317.86 L217.36,318.64 L218.29,330.58 L219.55,334.49 L219.89,338.28 L218.96,341.08 L200.25,321.32 L189.64,310.50 L174.89,295.87 L156.19,277.91 L136.38,259.60 L136.47,233.82 L136.38,198.55 L156.44,198.67 L182.14,198.44 Z"/>
  <path d="M889.00,131.14 L889.76,144.31 L890.77,171.10 L893.21,173.44 L892.96,175.45 L894.81,176.90 L893.04,180.70 L891.53,180.36 L887.40,182.37 L885.71,184.27 L867.85,183.60 L866.50,182.04 L866.67,179.02 L868.02,177.91 L867.85,175.01 L869.03,166.41 L871.73,162.39 L873.08,157.82 L874.42,156.14 L874.34,151.12 L879.48,149.23 L882.01,145.77 L880.57,142.42 L882.68,139.07 L882.51,137.06 L884.70,131.81 L888.24,132.37 L889.00,131.14 Z"/>
  <path d="M840.47,215.97 L845.61,218.87 L843.75,224.78 L841.22,226.12 L839.88,229.25 L844.09,230.81 L844.43,233.15 L842.57,244.09 L837.77,252.24 L834.65,254.58 L831.87,259.71 L830.44,256.37 L825.97,254.69 L820.50,250.23 L820.16,247.21 L820.08,246.77 L820.92,245.65 L822.35,243.20 L826.48,241.52 L826.73,239.96 L831.45,236.61 L832.21,234.83 L827.83,230.70 L827.66,228.13 L825.72,227.46 L825.55,225.12 L827.91,221.55 L826.65,219.42 L830.52,215.18 L831.37,212.95 L833.39,211.50 L840.47,215.97 Z"/>
  <path d="M329.93,300.34 L338.44,300.45 L377.37,300.45 L397.93,300.34 L397.93,310.50 L397.34,310.50 L397.26,361.16 L396.92,381.81 L396.92,402.23 L342.32,402.23 L341.90,404.24 L343.67,406.59 L317.80,406.59 L317.80,415.85 L304.91,415.85 L304.99,300.34 L329.93,300.34 Z"/>
  <path d="M854.20,137.06 L854.37,141.30 L853.53,145.10 L854.96,148.78 L854.54,152.68 L852.77,156.81 L854.12,162.39 L853.27,164.07 L855.72,167.42 L855.21,181.48 L855.38,183.26 L851.67,196.66 L852.01,197.44 L851.00,212.84 L852.09,214.51 L848.30,216.75 L849.40,219.09 L855.97,220.76 L857.32,219.54 L862.96,219.54 L865.83,218.87 L870.55,215.63 L870.88,217.97 L873.33,218.98 L867.68,221.99 L855.80,226.46 L850.83,227.35 L847.54,227.13 L845.10,228.13 L843.75,224.78 L845.61,218.87 L840.47,215.97 L833.39,211.50 L832.71,210.05 L830.35,209.94 L827.57,206.48 L827.91,203.47 L826.06,201.12 L824.88,201.23 L823.19,198.44 L755.45,198.44 L755.45,193.31 L755.45,192.97 L764.88,187.17 L766.40,184.38 L769.43,182.48 L768.25,179.02 L766.99,178.35 L766.06,172.77 L775.08,170.43 L783.08,170.54 L786.29,171.10 L789.74,173.33 L791.93,172.44 L798.59,172.55 L802.63,171.10 L806.93,167.42 L809.71,167.31 L809.80,161.72 L811.23,158.49 L807.77,156.26 L808.53,153.69 L814.68,150.23 L816.96,147.22 L824.37,140.41 L831.37,136.95 L841.81,137.51 L854.20,137.06 Z"/>
  <path d="M736.74,309.27 L747.27,309.60 L759.32,309.71 L815.36,309.49 L817.13,317.64 L812.83,316.86 L812.24,317.86 L807.01,319.09 L806.26,320.20 L802.80,320.54 L802.97,321.99 L807.18,320.99 L807.77,321.88 L812.41,320.87 L813.92,322.77 L816.70,321.99 L817.72,326.90 L816.79,329.24 L814.94,329.47 L811.06,334.49 L805.92,334.71 L805.08,338.17 L807.27,341.63 L809.04,342.30 L805.75,347.99 L802.97,347.32 L798.08,347.88 L794.71,349.11 L789.40,353.02 L785.19,358.15 L783.00,364.62 L779.80,363.17 L774.24,364.51 L756.80,345.09 L739.52,344.76 L739.77,342.41 L737.42,338.95 L735.81,340.18 L735.73,338.06 L716.77,337.06 L712.56,337.84 L709.27,339.74 L703.96,341.08 L696.13,341.41 L685.34,341.30 L685.76,336.50 L688.80,336.05 L689.98,332.70 L693.77,329.69 L697.98,329.58 L701.77,326.45 L705.73,325.34 L709.10,320.76 L711.21,319.42 L711.63,321.43 L717.70,317.53 L720.48,318.31 L722.42,314.51 L725.28,313.51 L725.96,308.71 L736.74,309.27 Z"/>
  <path d="M486.74,55.81 L488.76,62.28 L487.75,65.07 L488.26,73.33 L489.44,77.24 L492.47,84.16 L492.98,97.22 L493.57,98.11 L493.31,103.58 L494.58,108.04 L496.43,110.16 L497.02,118.31 L381.84,118.09 L381.92,79.03 L381.84,55.81 L486.74,55.81 Z"/>
  <path d="M743.82,198.89 L743.82,226.23 L741.54,227.35 L742.64,229.58 L742.56,232.71 L740.45,237.62 L739.02,245.09 L733.03,251.68 L731.10,252.57 L729.41,251.23 L727.64,254.13 L725.87,254.02 L723.93,257.93 L724.36,260.27 L722.75,262.17 L720.48,259.04 L717.61,263.96 L718.37,267.08 L716.52,268.20 L715.93,270.88 L711.88,271.32 L709.78,268.53 L708.01,267.97 L707.33,264.51 L705.14,265.18 L703.46,267.19 L697.64,265.63 L695.20,267.08 L691.75,264.29 L686.94,263.51 L686.69,261.72 L683.57,257.48 L677.67,257.48 L677.93,229.02 L677.84,204.69 L698.66,203.91 L704.64,206.70 L706.66,208.38 L708.18,206.81 L711.55,210.05 L713.65,211.05 L720.82,208.38 L725.03,208.93 L729.58,205.14 L736.24,201.46 L743.82,198.89 L743.82,198.89 Z"/>
  <path d="M442.76,300.34 L526.93,300.34 L526.93,310.50 L529.80,333.04 L528.95,368.86 L523.06,366.63 L521.54,364.29 L517.58,362.28 L516.57,364.07 L512.61,363.95 L511.77,362.84 L508.14,364.85 L506.63,363.73 L503.34,364.74 L500.31,367.86 L499.13,366.07 L495.92,364.62 L492.55,364.62 L491.46,362.28 L487.58,366.86 L486.32,364.29 L484.55,365.07 L483.20,363.40 L479.58,361.83 L476.88,364.51 L475.70,361.72 L473.51,361.39 L472.25,359.16 L469.30,358.26 L467.36,360.16 L466.10,358.49 L463.06,358.71 L459.69,356.92 L456.57,357.15 L455.48,353.24 L450.59,353.02 L448.74,353.69 L445.28,349.78 L444.10,350.00 L444.10,310.50 L416.21,310.50 L397.93,310.50 L397.93,300.34 L412.68,300.45 L442.76,300.34 Z"/>
  <path d="M87.01,113.40 L88.44,113.18 L91.73,115.30 L93.16,117.75 L93.92,123.89 L101.84,126.12 L108.58,122.89 L112.79,122.55 L117.68,123.67 L118.18,125.01 L126.61,122.10 L128.63,123.11 L133.18,122.55 L136.97,120.54 L143.72,118.76 L149.87,118.31 L151.97,116.97 L183.82,117.08 L185.93,120.54 L189.55,121.99 L190.82,124.78 L187.61,130.81 L186.69,134.38 L184.92,136.84 L185.17,138.73 L183.57,141.75 L181.97,142.42 L178.85,149.67 L179.95,152.46 L182.90,152.80 L184.16,154.47 L182.14,161.17 L182.14,198.44 L156.44,198.67 L136.38,198.55 L120.46,198.55 L99.82,198.22 L86.67,198.33 L71.59,198.44 L69.40,196.10 L68.22,189.51 L68.47,184.94 L66.36,181.37 L67.88,178.02 L68.98,172.55 L71.25,166.75 L72.26,161.61 L73.95,144.31 L73.69,141.97 L75.21,134.38 L75.80,123.89 L74.96,118.09 L75.72,114.63 L81.87,111.61 L84.56,113.96 L87.01,113.40 Z"/>
  <path d="M755.45,193.31 L755.45,198.44 L823.19,198.44 L824.88,201.23 L826.06,201.12 L827.91,203.47 L827.57,206.48 L830.35,209.94 L832.71,210.05 L833.39,211.50 L831.37,212.95 L830.52,215.18 L826.65,219.42 L827.91,221.55 L825.55,225.12 L825.72,227.46 L827.66,228.13 L827.83,230.70 L832.21,234.83 L831.45,236.61 L826.73,239.96 L826.48,241.52 L822.35,243.20 L819.23,242.64 L816.62,244.87 L759.83,244.87 L743.82,244.87 L743.82,226.23 L743.82,198.89 L743.82,198.89 L746.68,197.77 L755.45,192.97 L755.45,193.31 Z"/>
  <path d="M887.23,205.03 L888.41,208.71 L885.38,209.16 L887.23,205.03 Z"/>
  <path d="M882.09,198.11 L884.37,198.11 L885.21,202.91 L886.81,204.36 L884.96,204.02 L883.35,207.04 L882.85,211.28 L877.04,212.28 L877.96,210.38 L877.96,198.33 L882.09,198.11 Z"/>
  <path d="M709.27,339.74 L712.56,337.84 L716.77,337.06 L735.73,338.06 L735.81,340.18 L737.42,338.95 L739.77,342.41 L739.52,344.76 L756.80,345.09 L774.24,364.51 L771.54,365.52 L768.17,368.86 L764.88,374.11 L764.29,378.35 L761.68,381.70 L758.23,381.70 L757.47,384.15 L753.85,386.83 L751.82,389.74 L748.62,390.96 L745.17,394.09 L744.83,395.54 L741.63,397.21 L738.17,401.57 L734.63,399.78 L734.55,396.32 L732.11,390.85 L730.00,389.40 L729.83,385.05 L728.82,381.70 L724.69,378.57 L722.00,374.78 L722.16,372.44 L718.04,368.98 L716.01,365.18 L712.47,362.61 L710.03,358.37 L709.53,356.03 L707.17,351.57 L705.56,351.90 L700.43,347.55 L700.68,345.43 L703.96,341.08 L709.27,339.74 Z"/>
  <path d="M381.84,118.09 L497.02,118.31 L496.68,120.65 L492.47,125.01 L495.17,128.91 L498.71,131.26 L498.71,167.86 L496.68,168.31 L497.53,169.98 L497.02,173.56 L498.96,175.56 L497.78,177.01 L497.27,181.03 L495.92,184.05 L498.79,188.51 L496.01,187.95 L495.00,185.05 L486.91,181.26 L479.66,181.26 L477.47,180.81 L475.62,182.82 L467.70,179.14 L467.19,178.13 L419.08,178.13 L392.96,178.02 L381.75,178.02 L381.67,137.39 L381.92,137.39 L381.84,118.09 Z"/>
  <path d="M627.88,310.61 L627.62,306.92 L630.99,307.82 L650.37,307.37 L667.39,308.15 L670.43,307.93 L681.89,308.60 L695.03,308.82 L695.29,308.49 L725.96,308.71 L725.28,313.51 L722.42,314.51 L720.48,318.31 L717.70,317.53 L711.63,321.43 L711.21,319.42 L709.10,320.76 L705.73,325.34 L701.77,326.45 L697.98,329.58 L693.77,329.69 L689.98,332.70 L688.80,336.05 L685.76,336.50 L685.34,341.30 L665.54,341.41 L638.58,341.08 L625.60,341.19 L621.47,341.19 L593.16,341.19 L594.68,340.63 L596.19,337.06 L595.94,332.15 L598.81,328.80 L599.31,325.67 L601.59,324.56 L602.09,320.76 L605.13,315.63 L605.04,310.61 L605.88,310.61 L606.90,310.61 L608.75,310.38 L627.88,310.61 Z"/>
  <path d="M416.21,310.50 L444.10,310.50 L444.10,350.00 L445.28,349.78 L448.74,353.69 L450.59,353.02 L455.48,353.24 L456.57,357.15 L459.69,356.92 L463.06,358.71 L466.10,358.49 L467.36,360.16 L469.30,358.26 L472.25,359.16 L473.51,361.39 L475.70,361.72 L476.88,364.51 L479.58,361.83 L483.20,363.40 L484.55,365.07 L486.32,364.29 L487.58,366.86 L491.46,362.28 L492.55,364.62 L495.92,364.62 L499.13,366.07 L500.31,367.86 L503.34,364.74 L506.63,363.73 L508.14,364.85 L511.77,362.84 L512.61,363.95 L516.57,364.07 L517.58,362.28 L521.54,364.29 L523.06,366.63 L528.95,368.86 L530.56,370.76 L533.59,369.76 L535.78,370.65 L535.78,381.48 L535.78,402.35 L539.15,406.81 L539.23,411.27 L543.45,419.53 L543.70,423.89 L542.10,429.13 L540.58,431.25 L541.09,434.04 L539.99,436.16 L541.17,440.07 L537.55,447.32 L538.90,449.33 L536.37,449.44 L528.36,452.23 L525.50,450.67 L524.99,447.32 L522.97,449.67 L521.54,449.11 L520.78,452.01 L522.38,453.24 L522.64,457.03 L519.77,461.05 L515.14,466.07 L505.87,471.43 L504.94,470.54 L502.16,471.88 L502.08,470.65 L498.28,471.54 L496.51,468.98 L495.42,469.53 L499.46,474.78 L496.51,476.45 L493.73,475.45 L493.31,479.13 L489.86,482.93 L486.32,489.96 L484.04,497.32 L482.36,496.76 L481.94,499.44 L483.71,498.77 L482.86,504.13 L481.68,504.35 L481.60,507.37 L483.03,509.04 L483.45,515.18 L485.14,517.30 L485.56,521.21 L486.91,524.67 L482.19,526.79 L480.25,524.11 L476.63,523.10 L471.83,523.33 L467.70,519.98 L464.58,519.64 L462.22,516.97 L459.02,516.07 L456.83,513.51 L455.40,507.37 L452.61,503.68 L452.95,500.56 L451.69,497.21 L452.11,494.31 L450.17,491.07 L448.57,490.74 L445.96,487.84 L445.12,484.15 L442.84,480.81 L439.55,478.02 L437.95,471.88 L436.44,470.20 L434.41,465.29 L433.74,461.27 L431.80,458.37 L428.52,455.81 L427.76,454.02 L424.72,452.46 L422.37,447.99 L415.62,446.99 L411.58,447.21 L408.12,445.65 L407.37,447.77 L403.66,448.44 L400.88,452.68 L399.19,459.49 L398.27,459.60 L396.16,463.62 L393.63,463.73 L389.84,460.60 L380.32,455.58 L378.47,452.90 L374.76,450.34 L372.15,444.53 L371.98,439.29 L369.37,435.05 L368.78,431.36 L367.09,429.02 L361.11,425.56 L357.91,420.87 L355.29,419.20 L352.51,415.18 L348.64,413.06 L345.94,407.70 L343.67,406.59 L341.90,404.24 L342.32,402.23 L396.92,402.23 L396.92,381.81 L397.26,361.16 L397.34,310.50 L397.93,310.50 L416.21,310.50 Z"/>
  <path d="M256.96,198.55 L274.15,198.44 L274.15,218.87 L304.91,218.87 L304.82,257.04 L304.74,274.33 L304.99,276.57 L304.99,300.34 L282.58,300.23 L227.98,300.34 L228.06,198.55 L256.96,198.55 Z"/>
  <path d="M882.51,137.06 L882.68,139.07 L880.57,142.42 L882.01,145.77 L879.48,149.23 L874.34,151.12 L874.42,156.14 L873.08,157.82 L871.73,162.39 L869.03,166.41 L867.85,175.01 L868.02,177.91 L866.67,179.02 L866.50,182.04 L867.85,183.60 L855.38,183.26 L855.21,181.48 L855.72,167.42 L853.27,164.07 L854.12,162.39 L852.77,156.81 L854.54,152.68 L854.96,148.78 L853.53,145.10 L854.37,141.30 L854.20,137.06 L870.13,137.28 L882.51,137.06 Z"/>
  <path d="M822.60,279.69 L824.96,279.36 L822.94,282.82 L820.83,284.04 L819.57,288.73 L816.37,296.32 L813.76,297.88 L812.91,295.09 L814.26,288.84 L818.39,280.92 L822.60,279.69 Z"/>
  <path d="M813.08,280.92 L813.42,280.92 L812.66,280.92 L813.08,280.92 Z"/>
  <path d="M777.19,250.12 L785.19,256.92 L786.88,253.02 L789.24,253.35 L790.92,255.03 L790.92,258.04 L794.12,259.04 L796.15,260.94 L797.32,263.84 L795.98,267.08 L794.12,267.97 L792.94,270.88 L793.62,273.00 L797.75,272.33 L798.50,275.56 L803.90,276.90 L805.41,279.47 L809.71,282.26 L807.77,287.95 L809.54,292.41 L807.44,294.54 L807.18,297.10 L809.12,298.66 L807.01,301.12 L803.81,297.88 L803.05,299.00 L805.84,301.34 L813.42,301.90 L815.36,309.49 L759.32,309.71 L747.27,309.60 L736.74,309.27 L725.96,308.71 L695.29,308.49 L703.54,305.58 L704.55,303.35 L707.50,302.57 L707.67,300.79 L709.95,299.45 L709.95,297.88 L715.59,294.87 L721.49,289.40 L721.24,291.08 L723.34,294.54 L725.96,296.21 L727.89,296.10 L730.84,293.42 L732.95,295.54 L736.91,294.42 L743.90,290.52 L744.49,291.75 L747.19,289.96 L747.27,286.28 L748.96,283.04 L751.82,280.03 L753.00,276.34 L756.04,272.55 L757.22,267.86 L759.83,270.65 L762.36,271.54 L763.96,269.87 L767.24,262.62 L769.18,264.40 L776.34,256.14 L777.19,250.12 Z"/>
  <path d="M182.05,55.81 L181.89,81.03 L181.97,108.27 L181.72,109.94 L183.74,113.51 L183.82,117.08 L151.97,116.97 L149.87,118.31 L143.72,118.76 L136.97,120.54 L133.18,122.55 L128.63,123.11 L126.61,122.10 L118.18,125.01 L117.68,123.67 L112.79,122.55 L108.58,122.89 L101.84,126.12 L93.92,123.89 L93.16,117.75 L91.73,115.30 L88.44,113.18 L87.01,113.40 L84.56,113.96 L81.87,111.61 L79.09,110.83 L76.81,112.06 L73.86,110.27 L74.45,107.48 L76.48,106.03 L73.36,101.79 L71.25,90.74 L69.99,89.29 L68.30,81.48 L65.27,78.47 L64.00,72.44 L65.69,68.42 L68.81,70.32 L75.13,72.89 L79.42,72.78 L83.72,73.78 L87.77,72.78 L89.70,74.56 L93.33,74.45 L95.86,78.91 L97.71,78.58 L98.05,84.61 L99.14,90.07 L100.66,89.52 L99.14,84.83 L99.56,80.25 L102.09,75.57 L100.07,73.67 L99.90,70.32 L98.38,66.64 L99.14,63.96 L98.13,60.83 L95.69,60.39 L93.41,58.04 L94.00,55.81 L182.05,55.81 Z"/>
  <path d="M94.59,69.87 L96.61,68.98 L96.28,73.11 L93.83,71.55 L94.59,69.87 Z"/>
  <path d="M89.87,64.29 L91.56,61.61 L93.83,64.85 L93.16,67.64 L89.62,66.86 L89.87,64.29 Z"/>
  <path d="M743.82,226.23 L743.82,244.87 L759.83,244.87 L759.66,255.36 L762.69,253.46 L765.73,250.00 L767.75,250.67 L770.78,247.66 L775.33,249.11 L775.92,246.88 L778.45,246.99 L779.88,245.43 L782.49,247.33 L785.11,247.33 L786.88,253.02 L785.19,256.92 L777.19,250.12 L776.34,256.14 L769.18,264.40 L767.24,262.62 L763.96,269.87 L762.36,271.54 L759.83,270.65 L757.22,267.86 L756.04,272.55 L753.00,276.34 L751.82,280.03 L748.96,283.04 L747.27,286.28 L747.19,289.96 L744.49,291.75 L743.90,290.52 L736.91,294.42 L732.95,295.54 L730.84,293.42 L727.89,296.10 L725.96,296.21 L723.34,294.54 L721.24,291.08 L721.49,289.40 L719.47,289.07 L716.52,286.72 L715.76,284.38 L713.32,281.37 L711.46,277.46 L711.88,271.32 L715.93,270.88 L716.52,268.20 L718.37,267.08 L717.61,263.96 L720.48,259.04 L722.75,262.17 L724.36,260.27 L723.93,257.93 L725.87,254.02 L727.64,254.13 L729.41,251.23 L731.10,252.57 L733.03,251.68 L739.02,245.09 L740.45,237.62 L742.56,232.71 L742.64,229.58 L741.54,227.35 L743.82,226.23 Z"/>
  <path d="M591.56,105.36 L594.43,106.59 L596.11,110.05 L611.95,114.18 L618.52,117.19 L620.55,116.52 L627.12,118.53 L628.89,121.10 L632.09,123.56 L631.92,127.13 L630.49,129.92 L634.11,130.36 L632.68,133.27 L635.04,135.39 L634.45,137.84 L631.50,138.29 L628.97,142.98 L628.05,146.21 L629.81,146.77 L632.17,144.65 L634.70,140.63 L637.90,139.07 L640.43,133.94 L643.63,132.82 L643.38,135.50 L641.19,137.95 L636.89,146.43 L635.71,151.12 L635.80,154.47 L634.20,155.59 L632.76,160.16 L633.27,164.07 L631.92,166.64 L630.07,173.00 L630.49,178.02 L632.34,182.48 L631.75,188.40 L616.59,188.40 L588.11,188.06 L587.01,185.50 L581.53,183.15 L580.35,179.92 L579.85,175.34 L581.70,172.89 L579.43,170.88 L579.26,167.86 L578.42,165.52 L578.84,162.28 L575.89,157.82 L573.44,157.04 L569.06,153.58 L568.30,150.90 L563.59,148.67 L561.98,146.43 L558.78,146.10 L554.74,142.42 L555.83,134.94 L555.50,131.48 L557.27,128.35 L555.33,125.79 L553.56,125.56 L553.81,122.66 L557.35,118.31 L561.73,116.64 L562.66,115.41 L562.66,103.36 L565.78,101.68 L566.96,102.57 L570.41,102.80 L581.11,99.34 L585.07,97.44 L586.42,98.89 L584.31,101.57 L589.37,105.03 L591.56,105.36 Z"/>
  <path d="M304.40,137.28 L353.10,137.28 L381.67,137.39 L381.75,178.02 L381.75,218.76 L355.97,218.87 L322.26,218.76 L304.91,218.87 L274.15,218.87 L274.15,198.44 L274.15,148.00 L274.07,137.28 L304.40,137.28 Z"/>
  <path d="M217.16,602.19 L217.26,601.52 L217.92,601.92 L217.82,602.61 L217.03,602.52 L217.16,602.19 Z"/>
  <path d="M216.45,600.94 L217.03,601.43 L216.71,602.14 L216.45,601.90 L216.45,600.94 Z"/>
  <path d="M212.93,596.81 L213.67,596.72 L213.99,596.87 L213.89,597.48 L213.24,597.61 L212.65,597.23 L212.93,596.81 Z"/>
  <path d="M211.03,597.16 L212.36,597.30 L212.70,598.08 L214.03,598.95 L214.48,599.49 L214.52,599.93 L214.84,600.02 L214.89,600.60 L215.43,601.18 L215.49,601.70 L215.85,601.54 L216.00,601.94 L216.07,603.53 L215.85,603.88 L214.99,603.82 L214.75,603.01 L214.45,603.08 L213.83,602.48 L213.64,602.68 L213.12,602.48 L213.20,603.08 L213.69,602.92 L214.01,603.15 L213.86,603.97 L213.27,603.88 L212.38,602.83 L212.12,602.30 L212.17,601.74 L211.47,601.79 L211.47,601.36 L212.01,601.32 L212.55,600.94 L212.31,600.27 L211.67,600.13 L211.57,599.06 L211.33,598.53 L210.89,598.91 L210.73,598.30 L211.18,598.01 L210.81,597.32 L211.03,597.16 Z"/>
  <path d="M210.59,600.40 L211.18,600.67 L211.58,600.33 L211.99,600.49 L211.57,601.09 L210.91,600.91 L210.59,600.40 Z"/>
  <path d="M210.07,594.80 L209.63,594.40 L210.14,594.13 L211.80,594.51 L212.55,594.49 L213.07,595.25 L214.03,595.87 L213.93,596.34 L213.42,596.58 L212.73,596.47 L212.24,596.76 L211.57,596.58 L210.83,596.76 L210.67,595.80 L210.74,595.18 L210.19,595.16 L210.07,594.80 Z"/>
  <path d="M209.43,596.63 L209.01,596.32 L208.55,595.65 L208.50,595.13 L208.87,594.89 L209.26,595.13 L209.34,594.71 L210.56,595.45 L210.67,596.16 L210.25,596.25 L209.98,597.05 L210.29,597.28 L209.92,598.21 L209.44,598.01 L209.38,598.59 L209.07,598.30 L208.89,597.16 L209.43,596.63 Z"/>
  <path d="M207.83,597.43 L207.73,597.90 L207.30,597.63 L206.16,595.83 L205.43,595.29 L205.69,594.87 L205.40,593.84 L204.59,593.01 L205.42,592.21 L205.79,592.54 L206.51,592.81 L207.17,592.86 L207.19,593.50 L207.83,595.62 L207.83,597.43 Z"/>
  <path d="M207.59,589.53 L208.64,589.84 L209.24,589.80 L209.21,590.11 L210.08,591.23 L209.48,591.05 L209.33,591.43 L209.98,592.01 L210.19,593.04 L209.53,593.30 L209.31,593.66 L208.25,594.40 L207.93,594.37 L207.79,593.59 L208.01,593.12 L207.91,592.43 L207.54,591.58 L207.61,591.14 L207.37,590.04 L206.97,589.58 L206.85,588.77 L207.59,589.53 Z"/>
  <path d="M204.07,593.17 L204.51,593.17 L204.96,593.91 L204.76,594.42 L204.07,594.53 L204.17,593.73 L204.07,593.17 Z"/>
  <path d="M202.77,589.60 L203.70,589.62 L204.30,589.26 L205.18,589.75 L204.71,590.29 L204.88,590.49 L205.32,589.89 L206.38,590.09 L206.97,590.54 L206.63,591.34 L206.90,591.41 L207.25,592.48 L206.44,592.63 L204.94,591.76 L205.00,592.66 L204.52,593.01 L203.97,592.86 L203.63,592.30 L202.99,591.92 L202.50,591.14 L201.88,590.78 L201.91,590.13 L202.33,589.91 L202.47,589.35 L202.77,589.60 Z"/>
  <path d="M169.54,581.47 L168.24,582.50 L168.14,582.90 L167.09,583.17 L167.31,582.54 L168.44,581.90 L169.15,581.18 L169.54,581.47 Z"/>
  <path d="M168.06,579.93 L167.89,580.78 L167.45,581.65 L166.84,581.36 L167.35,580.36 L168.06,579.93 Z"/>
  <path d="M167.36,540.54 L167.68,540.71 L169.29,540.89 L170.13,540.78 L171.29,540.78 L172.56,540.94 L173.30,540.85 L174.02,541.18 L175.34,541.56 L177.11,541.65 L177.59,541.43 L178.77,541.30 L179.28,541.00 L180.56,540.96 L180.54,541.16 L181.30,541.05 L182.87,541.36 L183.93,541.88 L184.92,542.12 L185.14,542.34 L186.05,542.39 L186.91,542.77 L187.08,543.01 L187.60,542.81 L188.24,542.97 L188.24,581.05 L189.68,581.38 L189.86,581.03 L191.36,581.54 L192.26,580.89 L194.13,580.83 L193.79,581.92 L194.26,582.30 L195.32,582.66 L195.56,583.24 L198.69,585.38 L199.18,586.74 L199.74,586.36 L201.09,585.71 L201.84,585.69 L202.20,585.20 L202.16,584.46 L202.70,584.46 L202.84,583.82 L203.80,583.66 L205.23,583.10 L206.63,584.06 L206.50,584.64 L206.83,585.22 L207.62,585.36 L208.62,586.23 L208.55,586.47 L209.01,586.94 L210.27,587.48 L212.33,589.82 L212.63,590.45 L213.27,591.07 L214.21,592.46 L215.16,593.64 L214.80,594.13 L215.78,594.31 L215.54,595.02 L216.34,595.31 L216.44,596.14 L217.23,596.09 L218.75,596.94 L219.69,597.10 L220.18,597.50 L220.65,597.61 L220.79,598.01 L221.78,598.12 L222.08,598.62 L221.63,599.53 L221.70,600.29 L222.13,601.54 L221.80,601.85 L221.06,602.99 L219.98,603.82 L219.67,603.39 L219.27,603.53 L218.98,602.68 L219.07,602.32 L218.73,601.90 L219.44,601.45 L219.24,601.29 L218.53,601.85 L218.14,601.50 L217.70,601.70 L216.42,600.80 L216.86,599.82 L216.05,600.16 L216.02,600.65 L215.38,600.27 L215.24,599.80 L215.68,599.29 L215.54,598.77 L214.94,599.20 L214.33,598.28 L213.96,598.46 L213.72,597.70 L214.31,597.21 L214.89,597.21 L214.72,596.61 L215.02,595.83 L214.55,595.85 L213.57,595.18 L212.88,594.37 L211.26,593.79 L211.30,592.16 L210.78,591.96 L210.89,591.29 L210.35,591.12 L209.56,590.22 L209.34,589.75 L207.98,589.60 L206.48,588.39 L205.84,585.58 L205.53,586.23 L205.67,586.81 L206.28,587.92 L206.12,588.10 L206.53,589.02 L206.44,589.62 L205.85,589.49 L205.38,588.82 L204.76,588.71 L203.88,588.88 L203.90,587.92 L203.36,587.12 L202.87,587.37 L200.93,586.52 L200.77,586.76 L201.83,587.03 L202.65,587.70 L202.97,587.72 L203.07,588.26 L203.50,588.88 L202.43,589.24 L201.81,589.02 L201.79,589.58 L200.98,589.15 L200.71,588.84 L200.21,588.84 L198.81,588.04 L197.78,587.32 L197.68,586.90 L197.11,586.27 L195.52,585.83 L194.65,585.36 L193.11,584.82 L192.10,584.31 L192.19,583.75 L192.47,583.93 L192.81,583.57 L192.47,582.77 L192.90,582.32 L192.69,582.12 L191.93,582.97 L190.35,583.53 L188.46,583.33 L186.88,582.81 L186.81,582.41 L186.07,582.50 L185.28,582.21 L183.51,581.94 L182.48,581.92 L180.17,582.14 L179.35,582.30 L178.30,581.72 L177.00,581.45 L176.60,581.09 L176.45,580.49 L175.55,580.54 L175.25,581.07 L173.67,580.36 L173.41,580.04 L171.78,580.62 L170.99,581.32 L170.65,580.67 L170.99,580.31 L171.46,580.40 L173.01,579.93 L172.81,579.58 L172.08,579.75 L171.80,579.29 L171.12,579.22 L170.45,578.04 L170.20,578.33 L169.25,578.48 L168.95,578.33 L168.63,578.71 L167.45,578.57 L167.40,579.00 L166.61,579.11 L166.24,578.95 L166.51,578.19 L166.17,578.21 L165.63,579.02 L166.37,579.29 L166.44,579.87 L166.89,580.49 L166.62,581.16 L166.03,580.94 L165.86,581.27 L166.44,581.41 L166.76,582.30 L165.93,582.48 L165.48,582.30 L164.75,582.54 L164.38,582.34 L163.42,582.37 L163.45,582.03 L163.00,582.25 L162.75,582.68 L162.34,582.30 L161.84,582.83 L162.06,583.08 L161.35,583.39 L160.71,583.44 L160.46,583.86 L159.76,584.24 L159.29,584.11 L158.77,584.55 L158.35,584.53 L157.47,585.45 L156.53,585.51 L156.23,585.22 L155.65,585.71 L154.47,585.33 L154.74,584.64 L155.52,584.40 L156.02,584.44 L156.17,584.17 L157.08,583.64 L157.12,583.19 L155.92,583.79 L154.93,583.44 L154.81,583.19 L155.32,582.17 L156.17,581.43 L156.31,580.83 L156.56,580.71 L156.66,580.07 L156.23,579.35 L157.29,579.08 L159.31,578.06 L159.80,578.46 L160.42,578.57 L161.35,578.15 L160.32,577.59 L159.92,577.17 L159.11,577.21 L158.53,577.01 L158.37,577.19 L157.40,577.48 L156.97,578.04 L156.01,578.17 L155.01,578.82 L154.91,579.24 L154.15,579.46 L153.98,579.93 L153.44,580.22 L153.19,581.05 L152.15,581.58 L152.65,582.01 L152.23,582.63 L151.25,582.75 L151.17,583.55 L150.26,583.84 L149.97,583.50 L149.52,584.13 L148.98,584.15 L149.08,584.60 L147.88,584.87 L147.65,586.09 L149.01,586.16 L150.09,586.50 L150.39,586.90 L149.96,587.54 L149.23,587.95 L148.56,587.97 L148.49,588.33 L148.05,588.46 L148.25,588.91 L147.80,589.58 L146.82,590.20 L146.27,590.20 L145.73,590.42 L145.20,590.38 L144.80,590.62 L144.92,590.96 L144.16,591.14 L144.01,591.63 L143.49,591.32 L142.91,592.28 L141.95,592.21 L142.02,592.72 L141.45,592.59 L141.04,592.81 L141.04,593.50 L140.40,594.58 L139.37,594.71 L138.53,595.20 L138.40,595.47 L137.86,595.09 L136.95,596.12 L136.69,595.83 L136.19,595.91 L136.07,596.50 L135.55,596.72 L134.92,596.63 L134.44,597.21 L135.29,597.39 L134.37,598.68 L131.71,599.11 L130.96,600.25 L130.78,600.00 L130.88,599.29 L130.36,599.17 L129.70,599.44 L129.60,599.73 L128.57,600.20 L128.13,600.74 L128.00,600.36 L127.73,600.80 L127.12,600.51 L125.99,601.21 L125.15,601.18 L125.27,600.65 L124.90,600.13 L124.56,600.56 L124.59,601.00 L123.46,602.37 L123.08,602.03 L122.96,602.54 L122.18,602.45 L122.07,601.65 L121.59,601.47 L121.43,601.76 L121.85,602.12 L121.64,602.68 L121.02,602.97 L120.55,602.34 L119.98,602.30 L119.88,602.54 L120.45,602.90 L119.40,603.48 L120.11,603.64 L120.13,603.91 L119.54,603.70 L118.75,604.24 L117.21,604.22 L116.45,604.58 L116.39,604.84 L115.51,605.16 L114.87,605.04 L114.65,604.29 L115.29,604.04 L115.78,603.12 L116.42,603.10 L117.80,602.50 L118.91,602.48 L119.34,603.06 L119.66,602.63 L119.59,602.14 L120.23,601.92 L120.92,601.92 L121.85,600.85 L122.87,599.89 L124.22,599.04 L125.81,598.66 L126.46,598.84 L127.10,598.59 L127.27,598.95 L126.92,599.35 L127.31,599.66 L127.43,599.17 L128.22,599.13 L128.44,599.44 L128.92,599.55 L128.94,599.17 L128.13,598.84 L128.07,598.62 L128.60,597.57 L129.33,596.96 L130.31,596.38 L131.86,595.87 L132.99,595.13 L133.53,595.40 L133.96,595.29 L133.78,594.82 L133.91,594.37 L134.77,593.44 L135.95,592.83 L136.90,592.03 L136.85,591.58 L137.60,588.42 L138.78,587.57 L138.65,586.90 L135.82,587.86 L134.92,587.75 L134.71,587.34 L134.20,587.17 L134.03,586.72 L133.58,586.92 L133.29,587.61 L133.78,588.48 L133.19,588.86 L132.67,588.73 L131.65,587.34 L130.96,586.65 L130.61,586.65 L130.37,587.17 L130.07,587.25 L129.62,586.83 L129.06,586.76 L128.81,586.07 L127.16,586.85 L125.67,587.41 L125.55,587.72 L124.39,588.19 L123.82,587.77 L124.34,587.28 L124.16,586.12 L123.77,584.89 L124.54,584.37 L123.90,583.35 L123.35,582.77 L122.91,581.92 L122.25,581.56 L122.08,582.30 L121.29,582.46 L120.03,582.92 L118.51,583.12 L117.68,583.08 L116.98,582.83 L116.89,582.19 L116.29,581.99 L115.33,581.09 L114.52,580.92 L113.57,579.93 L114.21,579.49 L114.35,578.66 L113.86,578.84 L113.79,578.33 L114.03,577.90 L113.40,577.52 L113.34,577.92 L112.58,577.77 L112.48,577.08 L111.89,576.99 L111.57,576.52 L111.58,575.94 L110.99,576.21 L110.89,575.65 L111.62,575.51 L111.03,574.89 L112.07,574.84 L112.07,574.08 L112.33,573.57 L114.26,571.94 L114.67,571.45 L114.95,571.54 L114.79,570.85 L115.53,569.67 L116.17,569.20 L117.36,569.00 L118.29,569.20 L119.59,569.91 L120.43,569.82 L121.59,569.13 L122.79,568.08 L123.40,567.97 L123.55,568.24 L125.00,568.24 L126.28,568.01 L127.43,566.92 L127.43,566.65 L126.85,565.63 L126.78,565.02 L125.89,564.38 L125.55,563.82 L126.46,563.97 L127.32,563.50 L127.37,563.06 L126.26,562.23 L125.44,562.88 L124.66,562.77 L123.94,563.13 L123.11,563.21 L122.91,563.46 L121.96,563.82 L121.68,564.42 L121.21,564.67 L120.99,563.95 L120.41,563.79 L120.01,564.35 L119.77,564.08 L118.71,563.68 L116.54,563.71 L114.99,564.15 L114.40,564.22 L113.13,563.95 L110.74,563.64 L110.12,563.39 L109.83,562.99 L110.05,562.43 L109.19,561.96 L109.36,561.45 L109.90,561.18 L109.73,560.54 L108.87,560.54 L108.16,560.36 L106.78,560.22 L106.06,559.89 L104.94,559.55 L104.84,559.13 L106.58,558.57 L108.77,557.63 L110.30,557.08 L111.18,557.39 L112.07,557.46 L112.27,557.01 L111.74,556.94 L111.69,556.56 L113.83,555.94 L116.24,555.47 L117.53,555.42 L118.24,555.58 L117.87,556.25 L118.00,556.72 L117.74,557.05 L118.19,557.59 L119.03,557.50 L120.09,557.59 L121.32,557.48 L121.68,557.68 L122.49,557.72 L123.20,557.52 L124.12,557.75 L125.02,556.85 L125.66,556.81 L126.09,556.99 L126.31,556.47 L125.08,556.23 L123.90,556.43 L124.02,555.76 L123.09,555.04 L122.08,554.82 L121.78,554.17 L122.57,554.02 L123.58,554.67 L123.40,555.18 L123.89,555.58 L124.95,556.05 L125.20,555.56 L123.99,554.91 L124.51,553.75 L124.09,553.55 L122.89,553.79 L121.66,553.73 L121.48,553.53 L120.85,553.73 L118.27,553.24 L118.22,552.72 L117.45,551.59 L116.83,551.16 L115.83,550.80 L113.81,549.82 L112.88,549.44 L111.95,549.35 L110.57,548.68 L109.22,548.30 L109.16,548.17 L110.17,547.97 L110.62,547.34 L110.66,546.09 L113.39,546.18 L116.69,545.89 L117.55,545.67 L118.91,545.05 L120.21,544.09 L120.48,543.13 L121.04,542.30 L122.18,541.61 L122.67,541.09 L124.09,540.27 L124.31,540.49 L125.49,540.56 L127.21,540.13 L128.28,539.69 L130.86,538.30 L131.84,538.24 L131.94,538.44 L132.94,538.28 L133.91,538.33 L135.83,538.15 L137.72,537.55 L139.59,536.30 L140.35,536.03 L140.49,536.25 L143.37,536.76 L143.60,537.12 L142.61,537.59 L142.15,537.61 L142.17,538.24 L143.62,538.04 L143.70,537.70 L144.36,537.39 L144.58,537.57 L145.07,536.85 L146.50,537.50 L146.27,537.99 L147.16,538.13 L147.68,538.42 L148.46,537.95 L149.82,537.92 L150.60,537.77 L152.59,537.92 L153.60,538.10 L153.11,539.06 L154.96,539.31 L155.10,539.55 L156.90,539.98 L156.92,539.78 L158.21,539.51 L159.46,539.53 L159.48,539.75 L160.20,539.78 L160.96,539.46 L162.21,539.42 L163.08,539.55 L164.28,539.89 L164.84,539.82 L165.63,540.29 L166.08,540.11 L166.83,540.25 L167.36,540.54 Z"/>
  <path d="M151.51,590.33 L151.49,590.51 L150.43,590.25 L151.19,589.20 L151.88,589.11 L152.35,588.15 L152.87,589.00 L153.31,588.71 L154.15,589.17 L154.15,589.82 L152.92,589.91 L152.38,590.20 L151.51,590.33 Z"/>
  <path d="M148.37,592.32 L149.25,591.79 L148.46,591.67 L148.44,591.21 L149.10,590.89 L149.57,591.12 L149.64,591.58 L149.91,591.27 L149.92,590.58 L150.50,590.89 L150.60,590.45 L151.10,590.71 L151.71,590.71 L152.18,590.47 L152.96,590.89 L152.96,592.08 L153.93,591.99 L153.29,592.77 L152.11,592.46 L152.55,592.97 L152.21,593.39 L151.61,593.19 L151.59,594.00 L150.66,594.22 L150.36,594.55 L149.79,594.24 L149.18,595.09 L148.71,595.18 L148.20,595.56 L148.02,594.64 L147.31,595.13 L147.28,594.84 L146.64,594.55 L146.59,593.73 L145.96,593.39 L146.32,592.43 L147.55,591.83 L148.30,591.87 L148.37,592.32 Z"/>
  <path d="M146.60,596.14 L145.96,596.96 L145.76,596.83 L146.60,596.14 Z"/>
  <path d="M143.22,598.91 L143.70,598.95 L143.54,599.80 L142.73,599.69 L142.59,599.40 L143.22,598.91 Z"/>
  <path d="M130.12,601.52 L129.94,602.39 L128.99,603.10 L129.45,602.01 L129.77,602.12 L130.12,601.52 Z"/>
  <path d="M128.18,601.21 L128.76,601.21 L128.74,601.65 L128.17,602.14 L127.66,601.81 L127.34,602.12 L127.16,601.36 L127.32,601.12 L128.18,601.21 Z"/>
  <path d="M122.84,602.75 L122.91,603.10 L122.55,603.33 L122.29,602.95 L122.84,602.75 Z"/>
  <path d="M122.35,567.48 L121.90,567.88 L121.75,567.52 L122.35,567.48 Z"/>
  <path d="M121.16,604.75 L121.81,604.91 L121.75,605.25 L121.22,605.22 L121.16,604.75 Z"/>
  <path d="M112.71,605.54 L112.93,606.00 L112.46,606.20 L112.29,605.71 L112.71,605.54 Z"/>
  <path d="M112.12,606.12 L111.18,606.56 L110.98,606.25 L111.38,605.85 L112.12,606.12 Z"/>
  <path d="M110.20,580.83 L110.91,580.67 L111.06,580.96 L111.69,580.89 L112.29,581.16 L112.41,582.32 L112.09,582.70 L111.30,582.92 L111.13,583.33 L109.97,582.88 L109.43,582.90 L108.26,582.32 L107.86,582.32 L107.19,581.99 L106.95,581.45 L107.29,581.32 L108.43,581.45 L108.97,581.03 L109.54,580.98 L109.80,580.69 L110.20,580.83 Z"/>
  <path d="M110.17,606.70 L110.67,607.01 L109.65,607.77 L109.66,607.90 L110.96,607.34 L110.98,607.66 L110.45,608.04 L109.61,608.28 L109.53,608.66 L108.62,609.06 L107.83,609.08 L107.30,609.46 L106.33,609.80 L105.80,609.44 L106.83,609.02 L107.15,609.08 L107.93,608.73 L107.74,608.33 L108.18,607.90 L108.84,608.10 L108.90,607.83 L108.20,607.75 L107.81,607.45 L108.15,606.96 L109.34,606.67 L109.60,607.23 L110.17,606.70 Z"/>
  <path d="M102.74,610.18 L103.92,609.40 L103.98,609.06 L104.44,608.68 L105.15,608.50 L105.52,608.70 L105.65,609.24 L104.34,609.82 L103.63,610.67 L103.06,610.96 L102.74,610.18 Z"/>
  <path d="M99.79,611.25 L99.92,611.65 L99.13,611.67 L99.05,611.41 L99.79,611.25 Z"/>
  <path d="M98.56,593.62 L98.14,594.00 L98.05,593.62 L98.56,593.62 Z"/>
  <path d="M96.96,612.05 L97.16,612.43 L96.59,612.70 L96.50,612.30 L96.96,612.05 Z"/>
  <path d="M93.65,567.14 L96.10,567.75 L97.51,567.23 L98.15,567.28 L98.73,567.57 L98.88,568.06 L100.11,568.33 L100.50,568.57 L102.10,568.68 L103.06,568.86 L102.53,569.46 L101.76,569.33 L100.93,569.44 L100.51,569.71 L100.12,570.31 L99.53,569.75 L98.84,569.38 L98.20,569.33 L97.90,568.91 L96.35,568.37 L95.63,568.35 L94.51,568.82 L93.67,568.57 L93.32,568.08 L93.65,567.14 Z"/>
  <path d="M91.53,613.30 L91.58,613.77 L90.99,613.86 L91.11,613.46 L91.53,613.30 Z"/>
  <path d="M87.86,614.29 L88.26,614.46 L89.41,614.44 L89.46,614.58 L88.09,614.78 L87.86,614.29 Z"/>
  <path d="M85.72,613.75 L85.70,613.35 L86.14,613.19 L86.76,613.59 L86.52,613.97 L86.15,613.95 L86.27,614.37 L85.68,614.42 L84.44,614.87 L83.73,614.73 L83.93,614.42 L84.69,614.46 L85.72,613.75 Z"/>
  <path d="M79.11,615.49 L79.67,615.42 L79.67,615.94 L78.96,615.87 L78.08,616.47 L77.74,615.67 L78.12,615.65 L78.17,615.04 L78.62,615.02 L78.62,615.47 L79.11,615.49 Z"/>
  <path d="M77.00,615.11 L77.34,615.31 L77.10,616.00 L76.63,616.20 L76.62,615.78 L77.00,615.11 Z"/>
  <path d="M74.02,615.22 L74.54,615.24 L75.01,615.74 L74.51,616.32 L74.02,615.22 Z"/>
  <path d="M46.38,610.85 L45.80,611.12 L45.77,611.54 L40.85,611.79 L41.65,611.12 L41.65,610.80 L46.38,610.85 Z"/>
  <path d="M978.65,615.62 L977.14,614.91 L976.90,614.19 L977.10,612.36 L976.02,609.24 L976.87,608.21 L977.47,606.78 L977.03,605.84 L977.17,604.86 L978.89,606.02 L980.81,606.87 L981.99,608.12 L981.99,609.19 L983.74,610.93 L982.66,612.36 L980.74,613.03 L979.39,614.10 L978.65,615.62 Z"/>
  <path d="M972.79,598.66 L973.50,599.77 L974.41,599.28 L976.39,600.58 L976.09,601.74 L974.07,602.32 L973.66,602.09 L973.56,600.67 L972.52,600.35 L972.11,599.55 L972.79,598.66 Z"/>
  <path d="M970.36,597.18 L969.75,598.03 L968.34,598.03 L968.78,597.09 L970.36,597.18 Z"/>
  <path d="M964.39,593.21 L965.07,595.13 L964.73,596.25 L963.42,596.42 L962.54,594.15 L963.32,594.10 L964.39,593.21 Z"/>
  <path d="M955.06,588.88 L955.77,588.97 L956.10,589.82 L955.90,591.02 L955.19,591.78 L953.24,590.84 L953.47,589.50 L955.06,588.88 Z"/>
</svg>